<?xml version="1.0" encoding="UTF-8"?>
<svg xmlns="http://www.w3.org/2000/svg" xmlns:xlink="http://www.w3.org/1999/xlink" width="64px" height="64px"
  viewBox="0 0 64 64" version="1.1">
  <g id="surface1">
    <path style=" stroke:none;fill-rule:nonzero;fill:rgb(100%,0%,0%);fill-opacity:1;"
      d="M 29.980469 0.261719 C 27.183594 0.582031 25.082031 1.019531 23.871094 1.535156 C 23.742188 1.59375 23.582031 1.640625 23.519531 1.640625 C 23.453125 1.640625 23.308594 1.683594 23.183594 1.742188 C 22.703125 1.972656 22.429688 2.085938 22.230469 2.128906 C 22.109375 2.152344 22.019531 2.203125 22.019531 2.242188 C 22.019531 2.28125 21.972656 2.308594 21.925781 2.308594 C 21.875 2.308594 21.746094 2.355469 21.636719 2.40625 C 21.097656 2.6875 20.121094 3.203125 19.910156 3.320312 C 19.148438 3.761719 18.902344 3.917969 18.660156 4.113281 C 18.507812 4.222656 18.355469 4.320312 18.332031 4.320312 C 18.164062 4.320312 16 6.09375 15.351562 6.761719 C 15.148438 6.988281 14.871094 7.269531 14.742188 7.402344 C 14.414062 7.738281 13.492188 8.910156 13.164062 9.386719 C 12.648438 10.160156 12.585938 10.265625 11.765625 11.769531 C 11.710938 11.875 11.589844 12.121094 11.503906 12.328125 C 11.414062 12.527344 11.300781 12.796875 11.246094 12.921875 C 10.691406 14.160156 10.132812 16.722656 10.132812 18.039062 C 10.132812 18.644531 10.371094 19.976562 10.507812 20.140625 C 10.542969 20.1875 10.597656 20.335938 10.628906 20.460938 C 10.652344 20.597656 10.703125 20.707031 10.734375 20.707031 C 10.757812 20.707031 10.828125 20.796875 10.878906 20.910156 C 11.199219 21.601562 11.769531 22.292969 12.617188 23.007812 C 12.984375 23.320312 13.898438 23.910156 14.019531 23.910156 C 14.074219 23.910156 14.203125 23.957031 14.308594 24.015625 C 14.933594 24.34375 16.367188 24.542969 17.484375 24.460938 C 18.148438 24.417969 19.148438 24.179688 19.390625 24.015625 C 19.472656 23.957031 19.582031 23.910156 19.640625 23.910156 C 20.070312 23.910156 22.09375 22.136719 22.09375 21.765625 C 22.09375 21.71875 22.117188 21.675781 22.15625 21.660156 C 22.230469 21.632812 22.550781 21.175781 22.550781 21.09375 C 22.550781 21.058594 22.644531 20.863281 22.75 20.679688 C 22.855469 20.484375 22.996094 20.1875 23.046875 20.015625 C 23.109375 19.84375 23.222656 19.515625 23.3125 19.292969 C 23.40625 19.070312 23.503906 18.800781 23.542969 18.695312 C 23.582031 18.59375 23.703125 18.273438 23.808594 17.988281 C 23.921875 17.699219 24.039062 17.386719 24.078125 17.28125 C 24.105469 17.175781 24.222656 16.921875 24.328125 16.722656 C 24.433594 16.515625 24.664062 16.066406 24.839844 15.71875 C 25.011719 15.375 25.25 14.949219 25.363281 14.785156 C 25.476562 14.621094 25.707031 14.285156 25.875 14.039062 C 26.035156 13.796875 26.261719 13.503906 26.382812 13.394531 C 26.5 13.28125 26.589844 13.167969 26.589844 13.148438 C 26.589844 13.074219 27.261719 12.5 27.625 12.253906 C 27.824219 12.121094 28.214844 11.925781 28.722656 11.703125 C 29.875 11.203125 32.714844 10.972656 34.285156 11.261719 C 35.75 11.53125 36.472656 11.828125 37.515625 12.609375 C 38.675781 13.476562 39.375 14.421875 39.855469 15.792969 C 40 16.207031 40.023438 16.441406 40.03125 17.46875 C 40.039062 18.785156 39.976562 19.054688 39.40625 20.113281 C 38.863281 21.109375 37.5 22.613281 35.847656 24.023438 C 35.558594 24.269531 35.214844 24.566406 35.078125 24.691406 C 34.949219 24.8125 34.605469 25.117188 34.316406 25.363281 C 34.035156 25.609375 33.746094 25.863281 33.675781 25.921875 C 33.609375 25.980469 33.378906 26.183594 33.171875 26.367188 C 32.96875 26.554688 32.511719 26.957031 32.167969 27.261719 C 31.816406 27.566406 30.980469 28.363281 30.300781 29.027344 C 29.179688 30.117188 28.847656 30.464844 28.25 31.171875 C 27.96875 31.5 27.125 32.699219 27.039062 32.878906 C 27 32.96875 26.902344 33.132812 26.828125 33.257812 C 26.523438 33.71875 25.921875 34.996094 25.667969 35.71875 C 25.570312 36 25.460938 36.253906 25.433594 36.277344 C 25.410156 36.296875 25.347656 36.484375 25.304688 36.683594 C 25.265625 36.894531 25.15625 37.3125 25.074219 37.617188 C 24.640625 39.164062 24.472656 41.683594 24.722656 42.785156 C 25.003906 43.992188 25.332031 44.746094 25.933594 45.496094 C 26.4375 46.144531 27.488281 47.054688 27.878906 47.179688 C 27.984375 47.21875 28.089844 47.269531 28.113281 47.292969 C 28.265625 47.472656 29.25 47.785156 30.019531 47.894531 C 30.558594 47.976562 31.777344 47.976562 32.265625 47.894531 C 32.832031 47.804688 33.507812 47.628906 33.617188 47.546875 C 33.667969 47.5 33.8125 47.449219 33.933594 47.417969 C 34.246094 47.34375 35.09375 46.75 35.566406 46.28125 C 35.777344 46.054688 35.960938 45.863281 35.960938 45.847656 C 35.960938 45.832031 36.0625 45.675781 36.183594 45.496094 C 36.394531 45.191406 36.5625 44.847656 36.824219 44.207031 C 36.890625 44.042969 37.066406 43.402344 37.21875 42.792969 C 37.363281 42.175781 37.539062 41.503906 37.59375 41.304688 C 37.652344 41.09375 37.730469 40.796875 37.761719 40.632812 C 37.835938 40.1875 38.078125 39.492188 38.339844 38.996094 C 38.628906 38.429688 39.078125 37.765625 39.167969 37.765625 C 39.207031 37.765625 39.238281 37.71875 39.238281 37.667969 C 39.238281 37.609375 39.695312 37.117188 40.25 36.566406 C 41.203125 35.613281 41.539062 35.300781 43.046875 33.964844 C 43.398438 33.660156 43.742188 33.355469 43.808594 33.296875 C 44.089844 33.035156 45.242188 32.03125 45.46875 31.835938 C 45.617188 31.71875 46.011719 31.351562 46.371094 31.023438 C 46.71875 30.695312 47.414062 30.054688 47.902344 29.609375 C 48.96875 28.632812 49.882812 27.671875 50.515625 26.851562 C 50.765625 26.523438 50.996094 26.21875 51.023438 26.183594 C 51.109375 26.085938 51.367188 25.699219 51.464844 25.535156 C 51.503906 25.46875 51.6875 25.175781 51.855469 24.902344 C 52.191406 24.363281 52.527344 23.738281 52.808594 23.128906 C 53.097656 22.488281 53.164062 22.316406 53.25 21.972656 C 53.304688 21.789062 53.394531 21.46875 53.457031 21.265625 C 53.761719 20.261719 53.980469 18.175781 53.921875 16.871094 C 53.859375 15.648438 53.5625 13.796875 53.324219 13.222656 C 53.296875 13.140625 53.242188 12.992188 53.21875 12.886719 C 53.195312 12.78125 53.128906 12.582031 53.074219 12.441406 C 53.011719 12.296875 52.890625 11.976562 52.800781 11.730469 C 52.640625 11.316406 51.917969 9.824219 51.710938 9.503906 C 51.382812 8.984375 50.574219 7.851562 50.21875 7.410156 C 49.683594 6.75 48.273438 5.386719 47.664062 4.9375 C 47.414062 4.753906 47.167969 4.558594 47.125 4.515625 C 47.085938 4.46875 46.894531 4.335938 46.703125 4.207031 C 46.515625 4.089844 46.347656 3.96875 46.324219 3.949219 C 46.300781 3.925781 46.21875 3.875 46.132812 3.820312 C 46.050781 3.769531 45.796875 3.621094 45.570312 3.484375 C 44.769531 3 43.734375 2.464844 43.160156 2.234375 C 42.957031 2.144531 42.683594 2.035156 42.550781 1.980469 C 41.980469 1.726562 41.746094 1.640625 41.667969 1.640625 C 41.621094 1.640625 41.476562 1.59375 41.347656 1.535156 C 41.210938 1.476562 40.984375 1.394531 40.839844 1.347656 C 40.691406 1.3125 40.3125 1.207031 40 1.117188 C 39.199219 0.886719 38.621094 0.753906 37.867188 0.632812 C 37.507812 0.574219 37.152344 0.515625 37.066406 0.492188 C 36.984375 0.460938 36.382812 0.394531 35.734375 0.328125 C 34.117188 0.164062 31.152344 0.125 29.980469 0.261719 Z M 29.980469 0.261719 " />
    <path style=" stroke:none;fill-rule:nonzero;fill:rgb(100%,0%,0%);fill-opacity:1;"
      d="M 30.398438 49.347656 C 28.351562 49.609375 26.566406 50.667969 25.355469 52.328125 C 24.824219 53.058594 24.457031 53.855469 24.230469 54.808594 C 24.023438 55.621094 24.007812 57.445312 24.191406 58.101562 C 24.25 58.324219 24.304688 58.570312 24.304688 58.644531 C 24.304688 58.726562 24.351562 58.890625 24.410156 59.015625 C 24.464844 59.152344 24.59375 59.441406 24.691406 59.664062 C 25.082031 60.566406 25.972656 61.644531 26.757812 62.167969 C 26.941406 62.285156 27.152344 62.441406 27.230469 62.511719 C 27.429688 62.6875 28.386719 63.136719 28.929688 63.316406 C 30.550781 63.835938 32.296875 63.867188 33.789062 63.410156 C 34.347656 63.238281 35.519531 62.6875 35.785156 62.464844 C 35.917969 62.359375 36.039062 62.273438 36.0625 62.273438 C 36.175781 62.273438 37.128906 61.394531 37.484375 60.953125 C 38.421875 59.820312 39.007812 57.882812 38.910156 56.238281 C 38.863281 55.425781 38.71875 54.449219 38.636719 54.339844 C 38.597656 54.292969 38.550781 54.160156 38.523438 54.039062 C 38.308594 53.148438 37.152344 51.546875 36.199219 50.832031 C 34.980469 49.921875 34.101562 49.558594 32.617188 49.347656 C 31.695312 49.222656 31.390625 49.222656 30.398438 49.347656 Z M 30.398438 49.347656 " />
  </g>
</svg>